<?xml version="1.0" standalone="no"?>
<!DOCTYPE svg PUBLIC "-//W3C//DTD SVG 20010904//EN"
 "http://www.w3.org/TR/2001/REC-SVG-20010904/DTD/svg10.dtd">
<svg version="1.0" xmlns="http://www.w3.org/2000/svg"
 width="512.000000pt" height="512.000000pt" viewBox="0 0 512.000000 512.000000"
 preserveAspectRatio="xMidYMid meet">

<g transform="translate(0.000000,512.000000) scale(0.100000,-0.100000)"
fill="#000000" stroke="none">
<path d="M1885 4788 c-150 -28 -311 -152 -380 -291 -77 -157 -80 -312 -10
-479 6 -16 -1 -18 -79 -18 -79 0 -89 -2 -111 -25 l-25 -24 0 -296 0 -295 480
0 480 0 0 320 0 320 160 0 160 0 0 -320 0 -320 480 0 480 0 0 295 0 296 -25
24 c-22 23 -32 25 -111 25 -78 0 -85 2 -79 18 52 123 63 267 31 377 -80 270
-340 438 -616 397 -97 -14 -206 -63 -272 -121 l-48 -43 -47 42 c-120 106 -297
151 -468 118z m205 -329 c60 -27 98 -64 126 -124 22 -45 24 -64 24 -193 l0
-144 -157 4 c-170 4 -209 14 -259 70 -74 81 -83 217 -22 308 61 90 188 125
288 79z m825 -7 c84 -42 120 -107 120 -212 0 -105 -36 -168 -120 -213 -35 -19
-60 -22 -197 -25 l-158 -4 0 144 c0 122 3 150 21 188 27 60 64 97 124 127 41
20 61 23 110 20 33 -2 78 -14 100 -25z"/>
<path d="M421 3183 c-37 -21 -71 -74 -71 -110 0 -13 95 -470 211 -1016 147
-690 217 -1002 232 -1026 37 -61 76 -71 295 -71 l192 0 0 -160 0 -159 -429 -3
c-419 -3 -430 -4 -458 -24 -88 -66 -88 -202 0 -268 l28 -21 1900 -3 c2123 -2
1975 -7 2129 70 259 131 403 448 331 731 -23 89 -47 139 -108 225 -70 99 -146
125 -228 79 -93 -52 -112 -146 -49 -237 60 -87 78 -137 78 -215 0 -124 -65
-229 -176 -285 l-61 -30 -439 0 -438 0 0 160 0 160 196 0 c125 0 203 4 217 11
27 14 76 59 88 80 4 9 38 207 75 440 64 403 66 427 55 493 -45 268 -303 441
-573 385 -194 -41 -339 -194 -370 -391 l-13 -78 -637 0 -638 0 0 41 c0 23 -7
89 -16 146 -88 595 -591 1056 -1188 1089 -87 5 -106 3 -135 -13z m2619 -2383
l0 -160 -720 0 -720 0 0 160 0 160 720 0 720 0 0 -160z"/>
<path d="M1692 2953 c98 -121 168 -230 237 -372 49 -101 69 -158 117 -328 2
-9 31 -13 99 -13 l95 0 0 400 0 400 -310 0 -310 0 72 -87z"/>
<path d="M2560 2640 l0 -400 114 0 114 0 12 31 c24 56 87 145 147 206 123 127
298 212 479 235 l94 12 0 158 0 158 -480 0 -480 0 0 -400z"/>
</g>
</svg>
